<mxfile host="app.diagrams.net" agent="Mozilla/5.0 (Windows NT 10.0; Win64; x64) AppleWebKit/537.36 (KHTML, like Gecko) Chrome/128.0.0.0 Safari/537.36 Edg/128.0.0.0" version="24.7.7">
  <diagram name="PÃ¡gina-1" id="TmKQfweC4EBAH7_g8pFg">
    <mxGraphModel dx="880" dy="482" grid="1" gridSize="10" guides="1" tooltips="1" connect="1" arrows="1" fold="1" page="1" pageScale="1" pageWidth="827" pageHeight="1169" math="0" shadow="0">
      <root>
        <mxCell id="0" />
        <mxCell id="1" parent="0" />
        <mxCell id="wOufSjwoDpQr1Vx9GO1O-3" style="edgeStyle=orthogonalEdgeStyle;rounded=0;orthogonalLoop=1;jettySize=auto;html=1;entryX=0.5;entryY=0;entryDx=0;entryDy=0;" edge="1" parent="1" source="wOufSjwoDpQr1Vx9GO1O-1" target="wOufSjwoDpQr1Vx9GO1O-2">
          <mxGeometry relative="1" as="geometry" />
        </mxCell>
        <mxCell id="wOufSjwoDpQr1Vx9GO1O-1" value="inicio" style="ellipse;whiteSpace=wrap;html=1;" vertex="1" parent="1">
          <mxGeometry x="340" y="80" width="120" height="80" as="geometry" />
        </mxCell>
        <mxCell id="wOufSjwoDpQr1Vx9GO1O-5" style="edgeStyle=orthogonalEdgeStyle;rounded=0;orthogonalLoop=1;jettySize=auto;html=1;exitX=0.5;exitY=1;exitDx=0;exitDy=0;entryX=0.5;entryY=0;entryDx=0;entryDy=0;" edge="1" parent="1" source="wOufSjwoDpQr1Vx9GO1O-2" target="wOufSjwoDpQr1Vx9GO1O-4">
          <mxGeometry relative="1" as="geometry" />
        </mxCell>
        <mxCell id="wOufSjwoDpQr1Vx9GO1O-2" value="M1,M2,M3 = 0&lt;div&gt;MT = 0&amp;nbsp;&lt;/div&gt;" style="shape=hexagon;perimeter=hexagonPerimeter2;whiteSpace=wrap;html=1;fixedSize=1;" vertex="1" parent="1">
          <mxGeometry x="340" y="180" width="120" height="80" as="geometry" />
        </mxCell>
        <mxCell id="wOufSjwoDpQr1Vx9GO1O-7" style="edgeStyle=orthogonalEdgeStyle;rounded=0;orthogonalLoop=1;jettySize=auto;html=1;exitX=0.5;exitY=1;exitDx=0;exitDy=0;entryX=0.5;entryY=0;entryDx=0;entryDy=0;" edge="1" parent="1" source="wOufSjwoDpQr1Vx9GO1O-4" target="wOufSjwoDpQr1Vx9GO1O-6">
          <mxGeometry relative="1" as="geometry" />
        </mxCell>
        <mxCell id="wOufSjwoDpQr1Vx9GO1O-4" value="ler M1&lt;div&gt;ler M2&lt;/div&gt;&lt;div&gt;ler M3&lt;/div&gt;" style="shape=parallelogram;perimeter=parallelogramPerimeter;whiteSpace=wrap;html=1;fixedSize=1;" vertex="1" parent="1">
          <mxGeometry x="310" y="280" width="180" height="80" as="geometry" />
        </mxCell>
        <mxCell id="wOufSjwoDpQr1Vx9GO1O-9" style="edgeStyle=orthogonalEdgeStyle;rounded=0;orthogonalLoop=1;jettySize=auto;html=1;entryX=0.5;entryY=0;entryDx=0;entryDy=0;" edge="1" parent="1" source="wOufSjwoDpQr1Vx9GO1O-6" target="wOufSjwoDpQr1Vx9GO1O-8">
          <mxGeometry relative="1" as="geometry" />
        </mxCell>
        <mxCell id="wOufSjwoDpQr1Vx9GO1O-6" value="MT = M1 + M2 + M3" style="rounded=0;whiteSpace=wrap;html=1;" vertex="1" parent="1">
          <mxGeometry x="330" y="390" width="140" height="60" as="geometry" />
        </mxCell>
        <mxCell id="wOufSjwoDpQr1Vx9GO1O-8" value="MT = MT / 3" style="rounded=0;whiteSpace=wrap;html=1;" vertex="1" parent="1">
          <mxGeometry x="330" y="480" width="140" height="60" as="geometry" />
        </mxCell>
        <mxCell id="wOufSjwoDpQr1Vx9GO1O-17" style="edgeStyle=orthogonalEdgeStyle;rounded=0;orthogonalLoop=1;jettySize=auto;html=1;exitX=0.5;exitY=1;exitDx=0;exitDy=0;exitPerimeter=0;entryX=0.5;entryY=0;entryDx=0;entryDy=0;" edge="1" parent="1" source="wOufSjwoDpQr1Vx9GO1O-12" target="wOufSjwoDpQr1Vx9GO1O-15">
          <mxGeometry relative="1" as="geometry" />
        </mxCell>
        <mxCell id="wOufSjwoDpQr1Vx9GO1O-12" value="MT" style="strokeWidth=2;html=1;shape=mxgraph.flowchart.display;whiteSpace=wrap;" vertex="1" parent="1">
          <mxGeometry x="330" y="560" width="140" height="70" as="geometry" />
        </mxCell>
        <mxCell id="wOufSjwoDpQr1Vx9GO1O-15" value="fim" style="ellipse;whiteSpace=wrap;html=1;" vertex="1" parent="1">
          <mxGeometry x="330" y="650" width="140" height="80" as="geometry" />
        </mxCell>
        <mxCell id="wOufSjwoDpQr1Vx9GO1O-18" style="edgeStyle=orthogonalEdgeStyle;rounded=0;orthogonalLoop=1;jettySize=auto;html=1;exitX=0.5;exitY=1;exitDx=0;exitDy=0;entryX=0.5;entryY=0;entryDx=0;entryDy=0;entryPerimeter=0;" edge="1" parent="1" source="wOufSjwoDpQr1Vx9GO1O-8" target="wOufSjwoDpQr1Vx9GO1O-12">
          <mxGeometry relative="1" as="geometry" />
        </mxCell>
      </root>
    </mxGraphModel>
  </diagram>
</mxfile>
